<svg width="1132" height="1630" viewBox="0 0 1132 1630" fill="none" xmlns="http://www.w3.org/2000/svg">
<g filter="url(#filter0_d_8_39)">
<path d="M94.5469 10.448C117.867 10.4515 136.772 371.102 136.772 815.985C136.772 1260.87 117.867 1621.52 94.5469 1621.52C71.2261 1621.52 52.3203 1260.87 52.3203 815.985C52.3203 371.099 71.2262 10.448 94.5469 10.448Z" fill="#89B7B7"/>
</g>
<g filter="url(#filter1_d_8_39)">
<path d="M1036.11 10.448C1059.43 10.448 1078.34 371.099 1078.34 815.985C1078.34 1260.87 1059.43 1621.52 1036.11 1621.52C1012.79 1621.52 993.889 1260.87 993.889 815.985C993.889 371.102 1012.79 10.452 1036.11 10.448Z" fill="#C691AB"/>
</g>
<g filter="url(#filter2_d_8_39)">
<rect x="86.3389" y="178.08" width="959.322" height="958.996" rx="25" fill="#B7C8CF"/>
</g>
<circle cx="1035.61" cy="62.6123" r="59.6123" fill="#C691AB"/>
<circle cx="93.6123" cy="62.6123" r="59.6123" fill="#89B7B7"/>
<defs>
<filter id="filter0_d_8_39" x="50.7203" y="0.847998" width="101.652" height="1628.27" filterUnits="userSpaceOnUse" color-interpolation-filters="sRGB">
<feFlood flood-opacity="0" result="BackgroundImageFix"/>
<feColorMatrix in="SourceAlpha" type="matrix" values="0 0 0 0 0 0 0 0 0 0 0 0 0 0 0 0 0 0 127 0" result="hardAlpha"/>
<feOffset dx="7" dy="-1"/>
<feGaussianBlur stdDeviation="4.3"/>
<feComposite in2="hardAlpha" operator="out"/>
<feColorMatrix type="matrix" values="0 0 0 0 0 0 0 0 0 0 0 0 0 0 0 0 0 0 0.25 0"/>
<feBlend mode="normal" in2="BackgroundImageFix" result="effect1_dropShadow_8_39"/>
<feBlend mode="normal" in="SourceGraphic" in2="effect1_dropShadow_8_39" result="shape"/>
</filter>
<filter id="filter1_d_8_39" x="992.289" y="0.847998" width="101.652" height="1628.27" filterUnits="userSpaceOnUse" color-interpolation-filters="sRGB">
<feFlood flood-opacity="0" result="BackgroundImageFix"/>
<feColorMatrix in="SourceAlpha" type="matrix" values="0 0 0 0 0 0 0 0 0 0 0 0 0 0 0 0 0 0 127 0" result="hardAlpha"/>
<feOffset dx="7" dy="-1"/>
<feGaussianBlur stdDeviation="4.3"/>
<feComposite in2="hardAlpha" operator="out"/>
<feColorMatrix type="matrix" values="0 0 0 0 0 0 0 0 0 0 0 0 0 0 0 0 0 0 0.25 0"/>
<feBlend mode="normal" in2="BackgroundImageFix" result="effect1_dropShadow_8_39"/>
<feBlend mode="normal" in="SourceGraphic" in2="effect1_dropShadow_8_39" result="shape"/>
</filter>
<filter id="filter2_d_8_39" x="82.3389" y="178.08" width="967.322" height="966.996" filterUnits="userSpaceOnUse" color-interpolation-filters="sRGB">
<feFlood flood-opacity="0" result="BackgroundImageFix"/>
<feColorMatrix in="SourceAlpha" type="matrix" values="0 0 0 0 0 0 0 0 0 0 0 0 0 0 0 0 0 0 127 0" result="hardAlpha"/>
<feOffset dy="4"/>
<feGaussianBlur stdDeviation="2"/>
<feComposite in2="hardAlpha" operator="out"/>
<feColorMatrix type="matrix" values="0 0 0 0 0 0 0 0 0 0 0 0 0 0 0 0 0 0 0.25 0"/>
<feBlend mode="normal" in2="BackgroundImageFix" result="effect1_dropShadow_8_39"/>
<feBlend mode="normal" in="SourceGraphic" in2="effect1_dropShadow_8_39" result="shape"/>
</filter>
</defs>
</svg>
